<?xml version="1.0" encoding="iso-8859-1"?>
<!-- Generator: Adobe Illustrator 16.0.0, SVG Export Plug-In . SVG Version: 6.00 Build 0)  -->
<!DOCTYPE svg PUBLIC "-//W3C//DTD SVG 1.1//EN" "http://www.w3.org/Graphics/SVG/1.1/DTD/svg11.dtd">
<svg version="1.1" xmlns="http://www.w3.org/2000/svg" xmlns:xlink="http://www.w3.org/1999/xlink" x="0px" y="0px"
	 width="274.355px" height="156.439px" viewBox="0 0 274.355 156.439" style="enable-background:new 0 0 274.355 156.439;"
	 xml:space="preserve">
<g id="Layer_1_1_">
	<g>
		<g id="Layer_1_2_">
		</g>
		<g>
			<path d="M8.883,138.439H1.31c-0.725,0-1.31,0.589-1.31,1.313v15.379c0,0.722,0.585,1.309,1.31,1.309h7.573
				c0.724,0,1.31-0.587,1.31-1.309v-15.379C10.193,139.028,9.607,138.439,8.883,138.439z M3.228,139.236h3.739
				c0.095,0,0.172,0.142,0.172,0.315c0,0.175-0.077,0.316-0.172,0.316H3.228c-0.095,0-0.17-0.142-0.17-0.316
				C3.058,139.378,3.133,139.236,3.228,139.236z M5.097,155.146c-0.461,0-0.836-0.375-0.836-0.838c0-0.461,0.375-0.836,0.836-0.836
				c0.46,0,0.835,0.375,0.835,0.836C5.932,154.771,5.557,155.146,5.097,155.146z M9.212,152.28h-8.23v-11.628h8.23V152.28
				L9.212,152.28z"/>
		</g>
		<g>
			<g>
				<path style="fill:#FFFFFF;" d="M8.845,50.515l-2.205-0.003c-2.477,0-4.078,1.643-4.078,4.185v1.928H0.346
					C0.155,56.625,0,56.78,0,56.972v2.795c0,0.191,0.155,0.346,0.346,0.346h2.217v7.052c0,0.192,0.155,0.347,0.347,0.347h2.892
					c0.192,0,0.346-0.155,0.346-0.347v-7.052H8.74c0.191,0,0.346-0.155,0.346-0.346l0-2.795c0-0.092-0.036-0.181-0.102-0.246
					c-0.064-0.065-0.152-0.102-0.245-0.102H6.148V54.99c0-0.787,0.188-1.184,1.212-1.184l1.484-0.001
					c0.192,0,0.347-0.156,0.347-0.347v-2.596C9.191,50.671,9.036,50.515,8.845,50.515z"/>
			</g>
			<g>
				<path style="fill:#FFFFFF;" d="M82.551,61.294h3.662c-0.644,1.816-2.385,3.119-4.424,3.105
					c-2.473-0.018-4.519-1.997-4.614-4.469c-0.103-2.649,2.022-4.838,4.65-4.838c1.201,0,2.296,0.458,3.123,1.209
					c0.196,0.177,0.494,0.178,0.686-0.003l1.347-1.266c0.21-0.197,0.21-0.533,0-0.731c-1.309-1.241-3.067-2.016-5.007-2.054
					c-4.135-0.081-7.621,3.309-7.648,7.445c-0.029,4.168,3.34,7.554,7.499,7.554c4.001,0,7.269-3.133,7.487-7.078
					c0.006-0.049,0.01-1.721,0.01-1.721H82.55c-0.277,0-0.503,0.225-0.503,0.504v1.84C82.048,61.07,82.273,61.294,82.551,61.294z"/>
				<path style="fill:#FFFFFF;" d="M95.529,58.616v-1.8c0-0.243-0.199-0.44-0.442-0.44h-1.513c-0.244,0-0.441,0.197-0.441,0.44v1.8
					h-1.799c-0.244,0-0.441,0.195-0.441,0.44v1.514c0,0.243,0.197,0.44,0.441,0.44h1.799v1.799c0,0.244,0.197,0.441,0.441,0.441
					h1.514c0.243,0,0.441-0.197,0.441-0.441V61.01h1.799c0.243,0,0.44-0.198,0.44-0.44v-1.514c0-0.245-0.197-0.44-0.44-0.44H95.529
					L95.529,58.616z"/>
			</g>
			<path style="fill:#FFFFFF;" d="M53.756,54.375c-0.373,0.166-0.761,0.297-1.161,0.392c0.44-0.417,0.77-0.939,0.956-1.522l0,0
				c0.054-0.166-0.127-0.31-0.277-0.222l0,0c-0.554,0.33-1.151,0.578-1.774,0.734c-0.037,0.009-0.074,0.015-0.111,0.015
				c-0.113,0-0.224-0.043-0.31-0.12c-0.663-0.583-1.515-0.906-2.401-0.906c-0.382,0-0.769,0.06-1.149,0.177
				c-1.177,0.365-2.084,1.336-2.369,2.533c-0.106,0.45-0.136,0.899-0.087,1.336c0.006,0.051-0.018,0.086-0.032,0.102
				c-0.025,0.03-0.063,0.046-0.101,0.046c-0.003,0-0.008,0-0.012,0c-2.576-0.24-4.899-1.48-6.539-3.494l0,0
				c-0.083-0.104-0.245-0.09-0.31,0.023l0,0c-0.323,0.552-0.492,1.183-0.492,1.825c0,0.983,0.395,1.912,1.081,2.586
				c-0.289-0.067-0.567-0.176-0.827-0.32l0,0c-0.125-0.069-0.28,0.02-0.281,0.163l0,0c-0.02,1.461,0.837,2.762,2.119,3.347
				c-0.026,0-0.052,0.001-0.078,0.001c-0.204,0-0.408-0.02-0.611-0.059l0,0c-0.141-0.027-0.26,0.106-0.216,0.244l0,0
				c0.415,1.299,1.534,2.255,2.872,2.474c-1.11,0.745-2.403,1.138-3.75,1.138h-0.419c-0.129,0-0.239,0.086-0.272,0.21
				c-0.031,0.124,0.028,0.254,0.138,0.317c1.517,0.884,3.248,1.35,5.004,1.35c1.538,0,2.977-0.306,4.277-0.908
				c1.191-0.553,2.244-1.341,3.129-2.345c0.824-0.935,1.47-2.014,1.916-3.208c0.426-1.138,0.651-2.353,0.651-3.511v-0.055
				c-0.001-0.187,0.084-0.362,0.231-0.481c0.558-0.453,1.043-0.984,1.442-1.583l0,0C54.097,54.496,53.931,54.298,53.756,54.375
				L53.756,54.375z"/>
		</g>
		<g>
			<g>
				<path style="fill:#3293F0;" d="M13.008,0.005L9.766,0C6.123,0,3.77,2.415,3.77,6.152v2.836H0.51C0.229,8.988,0,9.218,0,9.5v4.11
					c0,0.28,0.229,0.508,0.51,0.508h3.26v10.371C3.77,24.771,3.999,25,4.28,25h4.253c0.282,0,0.51-0.229,0.51-0.511V14.118h3.81
					c0.282,0,0.511-0.228,0.511-0.508l0.001-4.11c0-0.136-0.054-0.267-0.149-0.362c-0.096-0.096-0.227-0.149-0.361-0.149H9.042
					V6.584c0-1.156,0.276-1.741,1.781-1.741l2.184-0.002c0.282,0,0.509-0.229,0.509-0.51V0.514
					C13.517,0.233,13.29,0.005,13.008,0.005z"/>
			</g>
			<g>
				<path style="fill:#3293F0;" d="M134.777,15.237h5.372c-0.941,2.664-3.496,4.575-6.487,4.555
					c-3.627-0.026-6.627-2.929-6.767-6.554c-0.151-3.886,2.966-7.096,6.819-7.096c1.762,0,3.368,0.672,4.581,1.772
					c0.287,0.26,0.723,0.261,1.006-0.005l1.973-1.856c0.311-0.289,0.311-0.781,0.004-1.072c-1.922-1.821-4.501-2.957-7.344-3.013
					c-6.065-0.119-11.177,4.854-11.219,10.92c-0.043,6.112,4.898,11.078,11,11.078c5.868,0,10.659-4.595,10.979-10.381
					c0.01-0.071,0.016-2.523,0.016-2.523h-9.933c-0.407,0-0.735,0.329-0.735,0.739V14.5
					C134.041,14.908,134.371,15.237,134.777,15.237z"/>
				<path style="fill:#3293F0;" d="M153.813,11.309V8.668c0-0.356-0.289-0.646-0.646-0.646h-2.221c-0.357,0-0.646,0.289-0.646,0.646
					v2.641h-2.639c-0.357,0-0.646,0.286-0.646,0.646v2.221c0,0.356,0.289,0.646,0.646,0.646h2.639v2.638
					c0,0.358,0.289,0.647,0.646,0.647h2.221c0.357,0,0.646-0.289,0.646-0.647v-2.638h2.639c0.355,0,0.645-0.29,0.645-0.646v-2.221
					c0-0.359-0.289-0.646-0.645-0.646H153.813L153.813,11.309z"/>
			</g>
			<path style="fill:#3293F0;" d="M85.574,5.908c-0.535,0.236-1.089,0.423-1.658,0.56c0.627-0.596,1.098-1.342,1.365-2.174l0,0
				c0.075-0.237-0.184-0.443-0.397-0.316l0,0c-0.792,0.471-1.645,0.824-2.534,1.048c-0.052,0.013-0.105,0.021-0.158,0.021
				c-0.162,0-0.32-0.062-0.444-0.171c-0.947-0.833-2.165-1.294-3.43-1.294c-0.548,0-1.101,0.085-1.643,0.253
				c-1.681,0.521-2.978,1.908-3.384,3.618c-0.153,0.643-0.195,1.285-0.123,1.909c0.008,0.072-0.025,0.124-0.047,0.146
				c-0.037,0.042-0.089,0.065-0.143,0.065c-0.006,0-0.012,0-0.02,0c-3.679-0.343-6.996-2.115-9.342-4.992l0,0
				c-0.118-0.146-0.349-0.128-0.443,0.035l0,0c-0.459,0.787-0.703,1.688-0.703,2.606c0,1.405,0.565,2.73,1.546,3.694
				c-0.413-0.097-0.812-0.252-1.183-0.458l0,0c-0.178-0.099-0.399,0.029-0.402,0.233l0,0c-0.025,2.088,1.197,3.946,3.027,4.781
				c-0.037,0-0.073,0.002-0.11,0.002c-0.29,0-0.583-0.028-0.874-0.084l0,0c-0.201-0.038-0.371,0.153-0.308,0.349l0,0
				c0.594,1.855,2.19,3.223,4.103,3.534c-1.586,1.063-3.434,1.626-5.356,1.626h-0.6c-0.185,0-0.341,0.121-0.388,0.3
				c-0.047,0.177,0.039,0.362,0.196,0.454c2.167,1.262,4.639,1.928,7.149,1.928c2.197,0,4.253-0.437,6.108-1.297
				c1.702-0.789,3.206-1.915,4.471-3.35c1.177-1.336,2.099-2.878,2.737-4.584c0.608-1.625,0.931-3.36,0.931-5.017V9.256
				c0-0.267,0.12-0.518,0.329-0.688c0.797-0.647,1.49-1.406,2.063-2.263l0,0C86.059,6.081,85.822,5.798,85.574,5.908L85.574,5.908z"
				/>
			<g>
				<g>
					<path style="fill:#3293F0;" d="M190.871,5.647c-0.25-0.436-0.57-0.653-0.957-0.653h-3.469c-0.223,0-0.377,0.073-0.463,0.218
						c-0.107,0.146-0.102,0.324,0.014,0.537l2.336,4.049c0.01,0.01,0.01,0.015,0,0.015l-3.67,6.501
						c-0.098,0.185-0.098,0.357,0,0.521c0.096,0.166,0.246,0.247,0.449,0.247h3.469c0.367,0,0.682-0.223,0.943-0.667
						c2.389-4.236,3.631-6.441,3.729-6.616L190.871,5.647z"/>
					<path style="fill:#3293F0;" d="M204.947,1.02c0.105-0.204,0.105-0.383,0-0.537c-0.088-0.146-0.236-0.218-0.449-0.218H201
						c-0.377,0-0.688,0.218-0.93,0.653c-4.963,8.803-7.531,13.358-7.705,13.67l4.92,9.023c0.232,0.437,0.551,0.653,0.957,0.653
						h3.469c0.213,0,0.367-0.071,0.465-0.217c0.096-0.164,0.092-0.344-0.016-0.537l-4.875-8.923v-0.016L204.947,1.02z"/>
				</g>
			</g>
			<g>
				<g>
					<path style="fill:#3293F0;" d="M267.729,13.7c-0.125-0.571-0.404-1.05-0.834-1.438c-0.43-0.386-0.926-0.613-1.486-0.681
						c-1.779-0.194-4.465-0.29-8.053-0.29c-3.59,0-6.268,0.097-8.039,0.29c-0.57,0.067-1.068,0.295-1.494,0.681
						c-0.426,0.388-0.705,0.867-0.842,1.438c-0.25,1.122-0.377,2.814-0.377,5.079c0,2.302,0.127,3.994,0.377,5.077
						c0.127,0.57,0.404,1.049,0.834,1.438c0.432,0.385,0.928,0.607,1.488,0.668c1.779,0.201,4.465,0.303,8.053,0.303
						s6.273-0.102,8.053-0.303c0.561-0.061,1.055-0.283,1.479-0.668c0.428-0.389,0.707-0.867,0.842-1.438
						c0.252-1.122,0.377-2.815,0.377-5.077C268.107,16.478,267.98,14.783,267.729,13.7z M252.742,15.166h-1.553v8.254h-1.451v-8.254
						h-1.523v-1.364h4.527V15.166L252.742,15.166z M256.658,23.42h-1.289v-0.783c-0.523,0.592-1.018,0.886-1.482,0.886
						c-0.445,0-0.725-0.18-0.84-0.537c-0.078-0.23-0.115-0.586-0.115-1.059v-5.672h1.289v5.28c0,0.31,0.006,0.479,0.016,0.509
						c0.029,0.202,0.131,0.303,0.305,0.303c0.262,0,0.537-0.203,0.828-0.608v-5.483h1.289V23.42L256.658,23.42z M261.592,21.274
						c0,0.705-0.043,1.189-0.129,1.449c-0.166,0.532-0.51,0.799-1.031,0.799c-0.465,0-0.914-0.267-1.35-0.799v0.697h-1.291v-9.619
						h1.291v3.148c0.416-0.521,0.865-0.783,1.35-0.783c0.521,0,0.865,0.271,1.031,0.813c0.086,0.251,0.129,0.729,0.129,1.437V21.274
						z M266.496,20.084h-2.598v1.262c0,0.668,0.223,1.001,0.668,1.001c0.318,0,0.512-0.174,0.58-0.522
						c0.02-0.097,0.029-0.392,0.029-0.884h1.32v0.188c0,0.475-0.01,0.755-0.029,0.843c-0.027,0.261-0.131,0.521-0.305,0.784
						c-0.348,0.512-0.871,0.768-1.566,0.768c-0.668,0-1.189-0.246-1.566-0.739c-0.281-0.358-0.422-0.92-0.422-1.684v-2.511
						c0-0.764,0.137-1.324,0.406-1.682c0.377-0.494,0.895-0.74,1.553-0.74c0.648,0,1.162,0.246,1.537,0.74
						c0.264,0.357,0.393,0.918,0.393,1.682V20.084L266.496,20.084L266.496,20.084z"/>
					<path style="fill:#3293F0;" d="M259.734,17.343c-0.223,0-0.439,0.106-0.652,0.319v4.366c0.213,0.212,0.43,0.318,0.652,0.318
						c0.377,0,0.566-0.322,0.566-0.972v-3.062C260.301,17.667,260.111,17.343,259.734,17.343z"/>
					<path style="fill:#3293F0;" d="M264.551,17.343c-0.434,0-0.652,0.328-0.652,0.985v0.667h1.307v-0.667
						C265.205,17.671,264.986,17.343,264.551,17.343z"/>
					<path style="fill:#3293F0;" d="M251.9,6.055v3.933h1.451V6.055l1.756-5.79h-1.48l-0.986,3.816l-1.031-3.816h-1.537
						c0.271,0.813,0.584,1.717,0.943,2.715C251.471,4.313,251.766,5.339,251.9,6.055z"/>
					<path style="fill:#3293F0;" d="M257.051,10.087c0.668,0,1.18-0.246,1.539-0.739c0.27-0.356,0.406-0.928,0.406-1.711v-2.54
						c0-0.772-0.137-1.34-0.406-1.696c-0.359-0.495-0.871-0.741-1.539-0.741c-0.648,0-1.156,0.246-1.523,0.741
						c-0.27,0.356-0.406,0.923-0.406,1.696v2.54c0,0.773,0.135,1.345,0.406,1.711C255.895,9.84,256.402,10.087,257.051,10.087z
						 M256.426,4.836c0-0.668,0.209-1.002,0.625-1.002s0.625,0.334,0.625,1.002v3.046c0,0.678-0.209,1.017-0.625,1.017
						s-0.625-0.34-0.625-1.017V4.836z"/>
					<path style="fill:#3293F0;" d="M261.041,10.087c0.484,0,0.982-0.299,1.494-0.897v0.798h1.32V2.746h-1.32v5.527
						c-0.291,0.417-0.566,0.624-0.828,0.624c-0.174,0-0.275-0.105-0.305-0.318c-0.008-0.021-0.014-0.188-0.014-0.508V2.746h-1.32
						v5.717c0,0.493,0.039,0.855,0.117,1.087C260.311,9.909,260.596,10.087,261.041,10.087z"/>
				</g>
			</g>
		</g>
		<g>
			<g>
				<g>
					<g>
						<g>
							<g>
								<g>
									<g>
										<defs>
											<rect id="SVGID_1_" x="259.686" y="94.549" width="14.67" height="16"/>
										</defs>
										<clipPath id="SVGID_2_">
											<use xlink:href="#SVGID_1_"  style="overflow:visible;"/>
										</clipPath>
										<path style="clip-path:url(#SVGID_2_);fill:#3293F0;" d="M273.861,94.545H260.16c-0.262,0-0.475,0.213-0.475,0.474v15.007
											c0,0.262,0.213,0.475,0.475,0.475h13.701c0.262,0,0.475-0.213,0.475-0.475V95.019
											C274.336,94.758,274.123,94.545,273.861,94.545L273.861,94.545z M273.387,109.551h-12.752V95.493h12.752V109.551z"/>
									</g>
								</g>
							</g>
						</g>
					</g>
				</g>
				<path style="fill:#3293F0;" d="M261.92,107.361h10.178c0.262,0,0.475-0.212,0.475-0.473v-10.18c0-0.262-0.213-0.475-0.475-0.475
					H261.92c-0.264,0-0.477,0.213-0.477,0.475v10.18C261.443,107.149,261.656,107.361,261.92,107.361L261.92,107.361z
					 M271.629,106.413h-9.23v-4.843l1.799-1.521l2.396,3.488c0.078,0.119,0.207,0.193,0.35,0.203
					c0.145,0.014,0.283-0.039,0.381-0.139l1.102-1.116l1.691,1.877c0.088,0.099,0.217,0.158,0.35,0.158h1.166v1.893H271.629
					L271.629,106.413z M262.398,97.178h9.23v6.395h-0.955l-1.887-2.096c-0.09-0.099-0.213-0.152-0.342-0.158
					c-0.133-0.004-0.256,0.05-0.35,0.139l-1.053,1.063l-2.367-3.449c-0.074-0.108-0.193-0.183-0.326-0.202
					c-0.133-0.021-0.268,0.02-0.369,0.108l-1.588,1.349L262.398,97.178L262.398,97.178z"/>
				<path style="fill:#3293F0;" d="M269.242,101.111c0.865,0,1.57-0.706,1.57-1.572c0-0.864-0.705-1.57-1.57-1.57
					s-1.572,0.701-1.572,1.57C267.67,100.405,268.377,101.111,269.242,101.111L269.242,101.111z M269.242,98.918
					c0.34,0,0.621,0.275,0.621,0.622c0,0.341-0.275,0.622-0.621,0.622c-0.342,0-0.623-0.275-0.623-0.622
					C268.619,99.199,268.896,98.918,269.242,98.918L269.242,98.918z"/>
			</g>
			<path style="fill:#3293F0;" d="M16.121,100.96l-1.929-1.323v-3.38c0-0.261-0.211-0.472-0.472-0.472h-2.303
				c-0.261,0-0.473,0.211-0.473,0.472v1.161c0,0-2.479-1.697-2.514-1.722c-0.157-0.108-0.368-0.113-0.536,0l-7.688,5.264
				c-0.217,0.147-0.271,0.442-0.123,0.654c0.094,0.133,0.24,0.207,0.389,0.207c0.094,0,0.187-0.024,0.266-0.084l1.396-0.954v8.357
				c0,0.261,0.212,0.473,0.473,0.473h11.108c0.261,0,0.472-0.212,0.472-0.473v-8.357l1.397,0.954
				c0.084,0.054,0.172,0.084,0.266,0.084c0.152,0,0.3-0.074,0.389-0.207C16.39,101.397,16.336,101.107,16.121,100.96z
				 M9.145,108.668H7.187v-4.59H9.15v4.59H9.145L9.145,108.668z M13.248,108.668h-3.158v-5.066c0-0.262-0.211-0.473-0.472-0.473
				H6.714c-0.261,0-0.472,0.211-0.472,0.473v5.066H3.084v-8.535l5.081-3.477l5.082,3.477V108.668L13.248,108.668z M13.248,98.992
				l-1.357-0.93v-1.333h1.357V98.992z"/>
			<g>
				<path style="fill:#3293F0;" d="M200.916,107.063l-4.902-1.685c0.143-0.188,0.285-0.379,0.432-0.581
					c1.787-2.446,2.691-4.338,2.691-5.636c0-3.129-2.543-5.674-5.674-5.674c-3.129,0-5.674,2.545-5.674,5.674
					c0,1.293,0.902,3.189,2.691,5.636c0.148,0.202,0.291,0.394,0.438,0.585l-4.908,1.681c-0.191,0.063-0.318,0.245-0.318,0.446
					c0,0.202,0.127,0.384,0.318,0.447l7.285,2.506c0.051,0.016,0.104,0.025,0.154,0.025c0.053,0,0.102-0.01,0.15-0.025l7.316-2.506
					c0.191-0.063,0.32-0.245,0.32-0.447C201.236,107.309,201.107,107.132,200.916,107.063L200.916,107.063z M198.195,99.168
					c0,2.044-3.145,6.043-4.732,7.852c-1.586-1.809-4.73-5.808-4.73-7.852c0-2.608,2.121-4.732,4.73-4.732
					C196.072,94.432,198.195,96.56,198.195,99.168L198.195,99.168z M193.449,109.52l-5.834-2.01l3.918-1.34
					c0.863,1.08,1.547,1.826,1.586,1.871c0.088,0.098,0.215,0.152,0.35,0.152c0.131,0,0.26-0.055,0.348-0.152
					c0.039-0.045,0.723-0.791,1.588-1.877l3.91,1.346L193.449,109.52z"/>
				<path style="fill:#3293F0;" d="M193.463,101.314c1.336,0,2.422-1.086,2.422-2.422s-1.086-2.422-2.422-2.422
					s-2.422,1.086-2.422,2.422C191.041,100.225,192.127,101.314,193.463,101.314L193.463,101.314z M194.941,98.888
					c0,0.815-0.662,1.479-1.479,1.479s-1.479-0.664-1.479-1.479s0.662-1.479,1.479-1.479S194.941,98.072,194.941,98.888
					L194.941,98.888z"/>
			</g>
			<path style="fill:#3293F0;" d="M144.699,112.209c-0.338-0.258-0.818-0.232-1.121,0.07l-1.814,1.816
				c-1.844,1.842-5.198-2.038-5.473-2.287c-0.25-0.284-4.014-3.756-2.287-5.473l1.815-1.814c0.303-0.303,0.338-0.785,0.071-1.122
				l-5.58-7.306c-0.151-0.195-0.374-0.321-0.623-0.34c-0.249-0.016-0.489,0.072-0.658,0.25l-3.23,3.23
				c-0.454,0.525-3.078,2.919,0.054,8.863c2.153,4.094,4.627,6.809,5.998,8.143c1.326,1.37,4.049,3.844,8.142,5.998
				c5.943,3.132,8.338,0.507,8.863,0.053l3.23-3.23c0.178-0.178,0.266-0.418,0.248-0.658c-0.018-0.249-0.143-0.471-0.338-0.623
				L144.699,112.209z M133.345,104.564l-5.215-5.215l1.423-1.423l4.521,5.917L133.345,104.564z M147.547,121.18
				c-0.008,0.008-2.117,2.055-6.754-0.445c-1.469-0.793-4.948-2.803-7.715-5.563c-2.813-2.803-4.903-6.361-5.713-7.866
				c-2.5-4.636-0.454-6.745-0.444-6.753l5.365,5.365c-0.205,0.48-0.463,1.201-0.284,2.1c0.551,2.785,5.864,7.732,8.061,8.063
				c1.105,0.169,1.619-0.08,2.102-0.285L147.547,121.18z M148.748,119.969l-5.223-5.225l0.729-0.729l5.918,4.521L148.748,119.969z"
				/>
			<g>
				<path style="fill:#3293F0;" d="M89.44,106.252c-0.553-0.389-1.206-0.682-1.913-0.859c0.086-0.077,0.163-0.159,0.24-0.25
					l2.49-1.164c0.192-0.092,0.298-0.303,0.256-0.515c-0.011-0.048-0.265-1.221-0.943-2.433c-0.938-1.668-2.24-2.596-3.765-2.692
					h-0.004c-0.01,0-0.015,0-0.024,0s-0.02,0-0.024,0h-0.004c-1.524,0.097-2.827,1.024-3.766,2.692
					c-0.134,0.236-0.249,0.471-0.35,0.697c-0.198-0.072-0.395-0.13-0.602-0.183c0.602-0.548,1.005-1.374,1.067-2.308
					c0.01-0.014,0.02-0.029,0.029-0.048l0.734-1.337c0.044-0.077,0.063-0.168,0.059-0.26c-0.005-0.033-0.067-0.793-0.549-1.553
					c-0.446-0.707-1.341-1.553-3.072-1.553c-0.005,0-0.014,0-0.019,0s-0.014,0-0.02,0c-1.73,0-2.625,0.841-3.072,1.553
					c-0.48,0.76-0.543,1.523-0.548,1.553c-0.005,0.092,0.014,0.178,0.058,0.26l0.735,1.337c0.01,0.015,0.02,0.034,0.029,0.048
					c0.067,0.934,0.471,1.76,1.067,2.308c-0.712,0.183-1.361,0.472-1.914,0.86c-1.033,0.73-1.605,1.717-1.605,2.774
					c0,0.255,0.207,0.462,0.461,0.462h8.774c-0.413,0.163-0.793,0.369-1.14,0.609c-1.033,0.732-1.605,1.717-1.605,2.775
					c0,0.254,0.206,0.461,0.461,0.461h9.621c0.255,0,0.462-0.207,0.462-0.461C91.042,107.965,90.474,106.979,89.44,106.252
					L89.44,106.252z M81.478,108.566c0.14-0.583,0.539-1.121,1.159-1.559c0.832-0.586,1.942-0.908,3.135-0.908
					s2.303,0.321,3.135,0.908c0.62,0.438,1.02,0.98,1.158,1.559H81.478z M76.142,103.156c0.832-0.586,1.942-0.908,3.135-0.908
					c0.707,0,1.39,0.115,2.01,0.336c-0.174,0.505-0.246,0.852-0.256,0.88c-0.042,0.212,0.063,0.423,0.256,0.515l1.581,0.74h-7.885
					C75.123,104.138,75.522,103.594,76.142,103.156L76.142,103.156z M85.772,99.258c2.404,0.173,3.447,3.033,3.74,4.043
					l-1.038,0.486c0.081-0.309,0.13-0.641,0.13-0.977c0-0.255-0.207-0.462-0.462-0.462s-0.461,0.207-0.461,0.462
					c0,0.639-0.208,1.221-0.544,1.645c-0.01,0.01-0.019,0.023-0.028,0.033c-0.347,0.418-0.817,0.678-1.337,0.678
					s-0.99-0.26-1.337-0.678c-0.009-0.015-0.019-0.023-0.028-0.033c-0.336-0.428-0.544-1.006-0.544-1.645
					c0-0.255-0.206-0.462-0.461-0.462s-0.461,0.207-0.461,0.462c0,0.341,0.043,0.668,0.129,0.977l-1.042-0.486
					C82.32,102.291,83.358,99.431,85.772,99.258L85.772,99.258z M77.373,99.018c0-0.02-0.793-1.477-0.793-1.477
					c0.039-0.207,0.14-0.63,0.404-1.039c0.471-0.725,1.235-1.092,2.273-1.092c0.005,0,0.01,0,0.02,0l0,0l0,0l0,0
					c1.048-0.004,1.817,0.367,2.293,1.092c0.27,0.414,0.37,0.838,0.409,1.039c0,0-0.794,1.462-0.794,1.477
					c-0.019,1.278-0.865,2.307-1.903,2.307C78.239,101.324,77.392,100.296,77.373,99.018L77.373,99.018z"/>
			</g>
		</g>
	</g>
</g>
<g id="Layer_1">
</g>
</svg>
