<?xml version="1.0" encoding="utf-8"?>
<!-- Generator: Adobe Illustrator 19.1.0, SVG Export Plug-In . SVG Version: 6.00 Build 0)  -->
<svg version="1.1" id="Layer_1" xmlns="http://www.w3.org/2000/svg" xmlns:xlink="http://www.w3.org/1999/xlink" x="0px" y="0px"
	 viewBox="0 0 310 339.5" style="enable-background:new 0 0 310 339.5;" xml:space="preserve">
<style type="text/css">
	.st0{clip-path:url(#SVGID_2_);fill:#3293F0;}
	.st1{fill:#3293F0;}
</style>
<g>
	<g>
		<defs>
			<rect id="SVGID_1_" x="8.8" y="8.1" width="296.9" height="323.8"/>
		</defs>
		<clipPath id="SVGID_2_">
			<use xlink:href="#SVGID_1_"  style="overflow:visible;"/>
		</clipPath>
		<path class="st0" d="M295.7,8H18.4c-5.3,0-9.6,4.3-9.6,9.6v303.7c0,5.3,4.3,9.6,9.6,9.6h277.3c5.3,0,9.6-4.3,9.6-9.6V17.6
			C305.3,12.3,301,8,295.7,8L295.7,8z M286.1,311.7H28V27.2h258.1V311.7z M286.1,311.7"/>
	</g>
	<path class="st1" d="M54,267.4h206c5.3,0,9.6-4.3,9.6-9.6v-206c0-5.3-4.3-9.6-9.6-9.6H54c-5.3,0-9.6,4.3-9.6,9.6v206
		C44.4,263.1,48.7,267.4,54,267.4L54,267.4z M250.5,248.2H63.7v-98l36.4-30.8l48.5,70.6c1.6,2.4,4.2,3.9,7.1,4.1
		c2.9,0.3,5.7-0.8,7.7-2.8l22.3-22.6l34.2,38c1.8,2,4.4,3.2,7.1,3.2h23.6V248.2z M63.7,61.3h186.8v129.4h-19.3L193,148.3
		c-1.8-2-4.3-3.1-6.9-3.2c-2.7-0.1-5.2,1-7.1,2.8l-21.3,21.5l-47.9-69.8c-1.5-2.2-3.9-3.7-6.6-4.1c-2.7-0.4-5.4,0.4-7.5,2.2
		L63.6,125L63.7,61.3L63.7,61.3z M63.7,61.3"/>
	<path class="st1" d="M202.2,140.9c17.5,0,31.8-14.3,31.8-31.8c0-17.5-14.3-31.8-31.8-31.8c-17.5,0-31.8,14.2-31.8,31.8
		C170.4,126.6,184.7,140.9,202.2,140.9L202.2,140.9z M202.2,96.5c6.9,0,12.6,5.6,12.6,12.6c0,6.9-5.6,12.6-12.6,12.6
		c-6.9,0-12.6-5.6-12.6-12.6C189.6,102.2,195.2,96.5,202.2,96.5L202.2,96.5z M202.2,96.5"/>
</g>
</svg>
