<?xml version="1.0" encoding="utf-8"?>
<!-- Generator: Adobe Illustrator 19.1.0, SVG Export Plug-In . SVG Version: 6.00 Build 0)  -->
<svg version="1.1" id="Layer_1" xmlns="http://www.w3.org/2000/svg" xmlns:xlink="http://www.w3.org/1999/xlink" x="0px" y="0px"
	 viewBox="0 0 348 373" style="enable-background:new 0 0 348 373;" xml:space="preserve">
<style type="text/css">
	.st0{fill:#3293F0;}
</style>
<g>
	<path class="st0" d="M327.9,289.1l-99.8-34.3c2.9-3.8,5.8-7.7,8.8-11.8c36.4-49.8,54.8-88.3,54.8-114.7
		c0-63.7-51.8-115.5-115.5-115.5c-63.7,0-115.5,51.8-115.5,115.5c0,26.3,18.4,64.9,54.8,114.7c3,4.1,5.9,8,8.9,11.9l-99.9,34.2
		c-3.9,1.3-6.5,5-6.5,9.1c0,4.1,2.6,7.8,6.5,9.1l148.3,51c1,0.3,2.1,0.5,3.1,0.5c1.1,0,2.1-0.2,3.1-0.5l148.9-51
		c3.9-1.3,6.5-5,6.5-9.1C334.4,294.1,331.8,290.5,327.9,289.1L327.9,289.1z M272.5,128.4c0,41.6-64,123-96.3,159.8
		C143.9,251.4,79.9,170,79.9,128.4c0-53.1,43.2-96.3,96.3-96.3C229.3,32,272.5,75.3,272.5,128.4L272.5,128.4z M175.9,339.1
		L57.2,298.2l79.7-27.3c17.6,22,31.5,37.2,32.3,38.1c1.8,2,4.4,3.1,7.1,3.1c2.7,0,5.3-1.1,7.1-3.1c0.8-0.9,14.7-16.1,32.3-38.2
		l79.6,27.4L175.9,339.1z M175.9,339.1"/>
	<path class="st0" d="M176.2,172.1c27.2,0,49.3-22.1,49.3-49.3c0-27.2-22.1-49.3-49.3-49.3c-27.2,0-49.3,22.1-49.3,49.3
		C126.9,149.9,149,172.1,176.2,172.1L176.2,172.1z M206.3,122.7c0,16.6-13.5,30.1-30.1,30.1s-30.1-13.5-30.1-30.1
		c0-16.6,13.5-30.1,30.1-30.1S206.3,106.1,206.3,122.7L206.3,122.7z M206.3,122.7"/>
</g>
</svg>
