<?xml version="1.0" encoding="utf-8"?>
<!-- Generator: Adobe Illustrator 19.1.0, SVG Export Plug-In . SVG Version: 6.00 Build 0)  -->
<svg version="1.1" id="Layer_1" xmlns="http://www.w3.org/2000/svg" xmlns:xlink="http://www.w3.org/1999/xlink" x="0px" y="0px"
	 viewBox="0 0 328.2 331" style="enable-background:new 0 0 328.2 331;" xml:space="preserve">
<style type="text/css">
	.st0{fill:#3293F0;}
</style>
<path class="st0" d="M235.3,191.1c-3.8-2.9-9.2-2.6-12.6,0.8l-20.4,20.4c-20.7,20.7-58.4-22.9-61.5-25.7
	c-2.8-3.2-45.1-42.2-25.7-61.5l20.4-20.4c3.4-3.4,3.8-8.8,0.8-12.6L73.6,10c-1.7-2.2-4.2-3.6-7-3.8c-2.8-0.2-5.5,0.8-7.4,2.8
	L22.9,45.3c-5.1,5.9-34.6,32.8,0.6,99.6c24.2,46,52,76.5,67.4,91.5c14.9,15.4,45.5,43.2,91.5,67.4c66.8,35.2,93.7,5.7,99.6,0.6
	l36.3-36.3c2-2,3-4.7,2.8-7.4c-0.2-2.8-1.6-5.3-3.8-7L235.3,191.1z M107.7,105.2L49.1,46.6l16-16l50.8,66.5L107.7,105.2z
	 M267.3,291.9c-0.1,0.1-23.8,23.1-75.9-5c-16.5-8.9-55.6-31.5-86.7-62.5c-31.6-31.5-55.1-71.5-64.2-88.4c-28.1-52.1-5.1-75.8-5-75.9
	l60.3,60.3c-2.3,5.4-5.2,13.5-3.2,23.6c6.2,31.3,65.9,86.9,90.6,90.6c12.4,1.9,18.2-0.9,23.6-3.2L267.3,291.9z M280.8,278.3
	l-58.7-58.7l8.2-8.2l66.5,50.8L280.8,278.3z M280.8,278.3"/>
</svg>
