<?xml version="1.0" encoding="utf-8"?>
<!-- Generator: Adobe Illustrator 19.1.0, SVG Export Plug-In . SVG Version: 6.00 Build 0)  -->
<svg version="1.1" id="Layer_1" xmlns="http://www.w3.org/2000/svg" xmlns:xlink="http://www.w3.org/1999/xlink" x="0px" y="0px"
	 viewBox="0 0 379.4 331.5" style="enable-background:new 0 0 379.4 331.5;" xml:space="preserve">
<style type="text/css">
	.st0{fill:#3293F0;}
</style>
<g>
	<path class="st0" d="M334.5,255.6c-11.5-8.1-25.1-14.2-39.8-17.9c1.8-1.6,3.4-3.3,5-5.2l51.8-24.2c4-1.9,6.2-6.3,5.3-10.7
		c-0.2-1-5.5-25.4-19.6-50.6c-19.5-34.7-46.6-54-78.3-56c0,0-0.1,0-0.1,0c-0.2,0-0.3,0-0.5,0c-0.2,0-0.4,0-0.5,0c0,0-0.1,0-0.1,0
		c-31.7,2-58.8,21.3-78.3,56c-2.8,4.9-5.2,9.8-7.3,14.5c-4.1-1.5-8.2-2.7-12.5-3.8c12.5-11.4,20.9-28.6,22.2-48
		c0.2-0.3,0.4-0.6,0.6-1l15.3-27.8c0.9-1.6,1.3-3.5,1.2-5.4c-0.1-0.7-1.4-16.5-11.4-32.3c-9.3-14.7-27.9-32.3-63.9-32.3
		c-0.1,0-0.3,0-0.4,0c-0.1,0-0.3,0-0.4,0c-36,0-54.6,17.5-63.9,32.3c-10,15.8-11.3,31.7-11.4,32.3c-0.1,1.9,0.3,3.7,1.2,5.4
		l15.3,27.8c0.2,0.3,0.4,0.7,0.6,1c1.4,19.4,9.8,36.6,22.2,48c-14.8,3.8-28.3,9.8-39.8,17.9c-21.5,15.2-33.4,35.7-33.4,57.7
		c0,5.3,4.3,9.6,9.6,9.6h182.5c-8.6,3.4-16.5,7.7-23.7,12.7c-21.5,15.2-33.4,35.7-33.4,57.7c0,5.3,4.3,9.6,9.6,9.6h200.1
		c5.3,0,9.6-4.3,9.6-9.6C367.8,291.2,356,270.7,334.5,255.6L334.5,255.6z M168.9,303.7c2.9-12.1,11.2-23.3,24.1-32.4
		c17.3-12.2,40.4-18.9,65.2-18.9s47.9,6.7,65.2,18.9c12.9,9.1,21.2,20.4,24.1,32.4H168.9z M57.9,191.2
		c17.3-12.2,40.4-18.9,65.2-18.9c14.7,0,28.9,2.4,41.8,7c-3.6,10.5-5.1,17.7-5.3,18.3c-0.9,4.4,1.3,8.8,5.3,10.7l32.9,15.4H33.8
		C36.7,211.6,45,200.3,57.9,191.2L57.9,191.2z M258.2,110.1c50,3.6,71.7,63.1,77.8,84.1l-21.6,10.1c1.7-6.4,2.7-13.3,2.7-20.3
		c0-5.3-4.3-9.6-9.6-9.6c-5.3,0-9.6,4.3-9.6,9.6c0,13.3-4.3,25.4-11.3,34.2c-0.2,0.2-0.4,0.5-0.6,0.7c-7.2,8.7-17,14.1-27.8,14.1
		c-10.8,0-20.6-5.4-27.8-14.1c-0.2-0.3-0.4-0.5-0.6-0.7c-7-8.9-11.3-20.9-11.3-34.2c0-5.3-4.3-9.6-9.6-9.6s-9.6,4.3-9.6,9.6
		c0,7.1,0.9,13.9,2.7,20.3l-21.7-10.1C186.4,173.2,208,113.7,258.2,110.1L258.2,110.1z M83.5,105.1c0-0.4-16.5-30.7-16.5-30.7
		c0.8-4.3,2.9-13.1,8.4-21.6c9.8-15.1,25.7-22.7,47.3-22.7c0.1,0,0.2,0,0.4,0c0,0,0,0,0,0c0,0,0,0,0,0h0
		c21.8-0.1,37.8,7.6,47.7,22.7c5.6,8.6,7.7,17.4,8.5,21.6c0,0-16.5,30.4-16.5,30.7c-0.4,26.6-18,48-39.6,48
		C101.5,153.1,83.9,131.7,83.5,105.1L83.5,105.1z M83.5,105.1"/>
</g>
</svg>
